<?xml version="1.0" standalone="no"?>
<!DOCTYPE svg PUBLIC "-//W3C//DTD SVG 20010904//EN"
 "http://www.w3.org/TR/2001/REC-SVG-20010904/DTD/svg10.dtd">
<svg version="1.0" xmlns="http://www.w3.org/2000/svg"
 width="907.000000pt" height="907.000000pt" viewBox="0 0 907.000000 907.000000"
 preserveAspectRatio="xMidYMid meet">
<metadata>
Created by potrace 1.11, written by Peter Selinger 2001-2013
</metadata>
<g transform="translate(0.000000,907.000000) scale(0.100000,-0.100000)"
fill="#000000" stroke="none">
<path d="M5856 7852 c-3 -5 27 -16 66 -26 86 -22 271 -89 433 -158 115 -48
528 -248 590 -285 213 -128 353 -238 531 -418 271 -275 464 -591 588 -964 54
-162 128 -434 140 -516 13 -82 19 -110 27 -125 7 -13 8 -13 9 0 0 8 4 40 7 70
17 131 4 462 -22 580 -3 14 -8 41 -11 60 -12 77 -67 278 -101 369 -148 397
-432 749 -793 984 -97 63 -296 161 -415 205 -189 70 -509 166 -623 187 -15 3
-38 7 -52 10 -14 3 -38 7 -55 10 -16 3 -43 7 -60 11 -50 9 -254 13 -259 6z"/>
<path d="M6187 7084 c-1 -1 -24 -5 -52 -9 -27 -3 -51 -7 -52 -9 -1 -1 62 -24
140 -50 303 -102 526 -236 733 -441 78 -78 234 -271 234 -290 0 -4 9 -19 20
-35 62 -87 174 -362 210 -515 6 -27 16 -68 22 -90 l11 -40 8 35 c64 285 -5
613 -188 889 -72 109 -233 270 -344 344 -203 135 -413 203 -642 210 -54 1 -99
2 -100 1z"/>
<path d="M3087 6734 c-1 -1 -27 -5 -57 -7 -144 -14 -347 -73 -503 -147 -107
-50 -246 -131 -284 -165 -27 -24 -28 -25 -9 -40 13 -10 43 -15 85 -15 l66 0
-62 -41 c-64 -42 -80 -72 -45 -83 9 -3 43 -6 75 -7 31 -1 57 -3 57 -5 0 -2
-20 -15 -44 -29 -100 -59 -101 -95 0 -95 36 0 64 -4 62 -9 -1 -5 -25 -24 -53
-43 -51 -34 -71 -68 -40 -68 10 0 57 25 106 56 70 45 99 57 137 60 82 6 176
14 202 19 14 2 43 6 64 10 106 15 256 67 425 147 63 30 67 30 178 25 104 -5
113 -4 113 13 0 23 -19 30 -86 30 -30 0 -54 3 -54 8 0 4 25 22 55 41 89 56 85
78 -15 85 -36 2 -69 5 -75 5 -5 1 10 13 35 28 62 36 80 53 80 75 0 14 -8 18
-35 19 -19 1 -44 3 -55 4 -11 1 -30 3 -42 4 -18 1 -9 10 40 42 74 48 82 74 25
82 -38 4 -341 6 -346 1z m289 -46 c2 -2 -25 -21 -60 -41 -56 -33 -74 -38 -147
-42 -45 -3 -94 -7 -108 -10 -14 -2 -46 -7 -71 -10 -134 -18 -257 -58 -447
-144 -83 -38 -99 -42 -163 -40 -38 1 -70 3 -70 5 0 1 26 18 58 37 245 147 471
223 717 243 44 3 81 7 82 8 4 4 205 -2 209 -6z m24 -131 c8 -1 -14 -19 -49
-40 -54 -32 -75 -39 -135 -42 -39 -3 -93 -7 -121 -10 l-50 -5 60 28 c110 53
150 70 169 73 18 4 89 1 126 -4z m-277 -8 c-4 -4 -48 -24 -98 -43 -132 -50
-252 -80 -377 -91 -60 -6 -62 -5 -33 8 124 60 287 106 428 123 29 4 53 7 55 9
7 6 31 0 25 -6z m324 -123 c1 -1 -27 -19 -62 -39 -67 -39 -82 -42 -225 -52
l-85 -5 55 23 c30 13 75 34 100 47 25 13 59 26 75 30 26 5 136 2 142 -4z
m-287 -7 c0 -3 -8 -9 -17 -12 -10 -3 -60 -21 -110 -41 -51 -19 -135 -44 -188
-55 -98 -22 -215 -37 -215 -28 0 9 179 75 260 96 78 21 101 26 185 37 28 3 51
7 53 8 6 6 32 2 32 -5z m-460 -48 c0 -5 -10 -13 -22 -17 -13 -4 -60 -24 -106
-46 -73 -35 -90 -39 -152 -37 -39 1 -70 5 -70 8 0 7 98 63 125 72 11 3 62 9
114 12 52 4 96 9 99 12 8 8 12 6 12 -4z m464 -96 c-74 -34 -214 -82 -258 -89
-21 -4 -41 -8 -45 -10 -3 -3 -24 -7 -46 -10 -22 -4 -64 -10 -93 -15 -72 -11
-62 4 25 39 99 40 242 78 355 94 122 18 121 18 62 -9z m-484 -63 c-36 -15 -85
-38 -110 -51 -37 -18 -58 -21 -124 -19 l-78 3 73 41 c63 35 83 42 139 43 35 1
66 3 67 5 1 1 24 3 50 4 l48 2 -65 -28z"/>
<path d="M5813 6540 c9 -6 25 -13 35 -15 9 -2 59 -20 111 -39 311 -120 489
-225 653 -386 193 -190 304 -386 382 -676 19 -71 35 -122 36 -114 1 8 4 24 7
35 13 49 11 273 -3 339 -82 385 -358 678 -749 795 -129 38 -259 62 -375 67
-87 4 -111 3 -97 -6z"/>
<path d="M3693 6263 c-35 -9 -63 -19 -63 -23 0 -6 150 -54 580 -185 102 -31
194 -60 204 -64 16 -6 169 29 182 42 4 4 -785 239 -816 242 -14 2 -53 -4 -87
-12z"/>
<path d="M3409 6177 c-63 -17 -116 -31 -118 -33 -4 -4 2 -10 104 -99 44 -38
82 -72 85 -75 4 -4 121 -107 195 -172 20 -17 26 -16 170 22 83 22 159 42 170
45 68 15 247 64 251 68 3 2 -53 25 -123 50 -70 26 -239 86 -374 135 l-246 88
-114 -29z"/>
<path d="M3045 6089 c-77 -20 -166 -43 -198 -50 l-57 -13 -61 -191 c-33 -104
-71 -223 -84 -262 -13 -40 -22 -73 -20 -73 3 0 116 30 252 66 137 36 255 67
263 69 60 14 426 109 430 112 4 4 -89 96 -325 323 l-60 57 -140 -38z"/>
<path d="M2546 5949 c-61 -16 -112 -33 -115 -38 -6 -9 -92 -108 -126 -145 -11
-12 -39 -44 -62 -72 -23 -27 -107 -123 -186 -214 -79 -91 -144 -166 -143 -167
1 -1 42 9 181 47 44 12 87 23 95 25 73 16 297 78 303 84 4 4 29 70 56 147 27
76 67 190 89 252 23 66 35 112 28 111 -6 0 -60 -14 -120 -30z"/>
<path d="M4695 5940 c-38 -10 -82 -23 -96 -28 -15 -6 -30 -8 -33 -5 -3 4 -6 3
-6 -1 0 -7 25 -32 185 -181 65 -60 155 -145 199 -187 45 -43 87 -78 94 -78 20
0 326 82 335 90 4 4 -83 67 -195 140 -112 74 -249 164 -306 202 -56 37 -104
68 -105 67 -1 -1 -33 -9 -72 -19z"/>
<path d="M2247 5881 c-57 -15 -61 -18 -315 -280 -141 -145 -268 -276 -282
-290 -14 -14 -36 -38 -49 -53 l-24 -27 32 9 c17 6 45 14 61 19 17 6 34 10 38
10 28 3 53 20 92 61 25 26 110 116 190 200 80 84 165 174 189 199 24 25 71 74
104 108 66 67 64 69 -36 44z"/>
<path d="M4120 5785 c-386 -102 -363 -94 -352 -108 5 -7 21 -32 34 -57 73
-131 242 -416 250 -421 8 -5 220 48 508 127 52 14 102 27 110 29 38 8 216 58
220 62 3 3 -3 10 -12 17 -9 7 -52 44 -95 83 -126 113 -357 317 -373 329 -12 9
-76 -4 -290 -61z"/>
<path d="M3530 5630 c-58 -15 -199 -53 -315 -83 -378 -99 -598 -158 -607 -163
-4 -3 -8 -17 -7 -32 2 -34 -11 -407 -16 -484 l-4 -56 227 59 c125 33 234 62
242 64 8 2 60 15 115 29 261 69 421 111 539 143 72 19 137 36 145 38 46 9 71
18 71 25 0 5 -57 107 -127 227 -69 120 -131 228 -137 240 -6 13 -13 22 -16 22
-3 0 -52 -13 -110 -29z"/>
<path d="M4955 5333 c-21 -5 -396 -103 -570 -149 -169 -45 -280 -76 -284 -79
-3 -3 277 -854 285 -863 1 -2 73 16 161 39 87 23 248 65 358 95 110 29 254 66
319 83 66 17 124 35 128 39 8 8 -56 159 -183 430 -21 46 -39 86 -39 88 0 3
-38 87 -106 231 -19 40 -34 77 -34 83 0 11 -3 11 -35 3z"/>
<path d="M1561 5114 c-46 -13 -87 -27 -91 -31 -4 -4 -36 -62 -70 -128 -34 -66
-79 -151 -100 -190 -100 -187 -171 -327 -168 -330 8 -9 341 84 349 96 5 8 39
106 75 219 36 113 76 234 88 270 13 36 26 77 30 93 8 33 3 33 -113 1z"/>
<path d="M2460 4676 c-3 -2 -17 -7 -30 -9 -14 -3 -45 -10 -70 -17 -25 -7 -52
-14 -60 -15 -53 -12 -704 -186 -711 -190 -5 -4 -7 -20 -4 -38 2 -18 7 -75 10
-127 10 -154 14 -202 19 -265 3 -33 8 -98 11 -145 3 -47 8 -107 10 -135 2 -27
7 -86 11 -130 3 -44 7 -81 8 -82 2 -2 94 22 341 86 61 16 225 59 365 96 140
37 258 70 262 73 5 6 -2 62 -26 187 -10 50 -13 70 -60 335 -56 316 -70 383
-76 376z"/>
<path d="M5812 4510 c-57 -15 -105 -30 -108 -33 -4 -4 43 -204 52 -218 4 -7
204 40 217 51 8 7 -39 210 -51 221 -4 4 -53 -6 -110 -21z"/>
<path d="M5424 4408 l-112 -30 30 -111 c17 -62 31 -113 32 -114 0 -1 49 11
109 25 88 22 107 30 107 45 0 17 -48 209 -53 213 -1 1 -52 -12 -113 -28z"/>
<path d="M1264 4363 l-172 -45 3 -277 c2 -152 4 -363 5 -468 2 -139 6 -193 14
-193 7 0 86 20 176 44 91 24 180 47 198 51 l33 7 -5 106 c-9 161 -16 280 -21
352 -3 36 -8 121 -11 190 -4 69 -8 145 -10 170 -1 25 -3 60 -3 78 -1 24 -5 32
-18 31 -10 0 -95 -21 -189 -46z"/>
<path d="M5025 4303 c-49 -14 -91 -26 -93 -27 -4 -4 49 -210 57 -218 7 -8 201
39 214 51 4 4 -4 56 -19 114 -31 124 -21 119 -159 80z"/>
<path d="M4660 4207 c-58 -16 -107 -31 -109 -33 -4 -4 47 -215 53 -222 2 -1
32 5 67 13 35 9 82 21 103 26 22 5 43 12 47 15 6 3 -46 224 -54 229 -1 1 -49
-12 -107 -28z"/>
<path d="M5905 4132 l-100 -27 2 -33 c0 -19 11 -71 24 -116 l23 -83 110 29
c61 17 112 31 112 32 1 1 -28 123 -45 184 -7 23 -15 42 -19 41 -4 0 -52 -13
-107 -27z"/>
<path d="M4260 4102 c-52 -15 -95 -32 -95 -37 0 -6 11 -56 25 -113 29 -118 12
-110 163 -72 48 12 87 27 87 32 0 6 -12 57 -27 114 -20 77 -31 104 -42 103 -9
0 -59 -12 -111 -27z"/>
<path d="M5522 4030 c-57 -15 -105 -30 -108 -32 -3 -4 12 -67 46 -189 l10 -37
106 29 c59 16 109 30 111 33 6 6 -50 226 -57 225 -3 0 -51 -13 -108 -29z"/>
<path d="M3877 4002 l-99 -26 6 -31 c3 -16 7 -34 9 -40 2 -5 11 -44 21 -85
l19 -76 111 29 c61 16 112 30 113 31 1 1 -11 51 -26 111 -18 73 -32 110 -42
112 -8 0 -58 -11 -112 -25z"/>
<path d="M5143 3931 c-56 -14 -105 -29 -108 -33 -4 -4 5 -57 21 -117 22 -89
31 -110 43 -107 9 3 60 17 114 32 78 21 96 30 92 43 -2 9 -14 54 -26 101 -11
47 -24 90 -27 96 -5 7 -39 3 -109 -15z"/>
<path d="M3495 3900 c-69 -18 -100 -31 -99 -41 1 -12 9 -44 45 -180 l9 -36
106 28 c59 15 109 30 111 33 10 9 -49 226 -61 225 -6 -1 -56 -14 -111 -29z"/>
<path d="M5900 3820 l-205 -55 2 -65 c0 -36 4 -108 7 -160 3 -52 8 -138 11
-190 3 -52 8 -124 10 -160 6 -72 16 -266 18 -317 0 -18 5 -33 10 -33 6 0 90
21 189 47 l179 46 -5 470 c-3 258 -7 470 -8 471 -2 1 -95 -23 -208 -54z"/>
<path d="M4755 3828 c-60 -16 -111 -30 -112 -32 -1 -1 11 -51 26 -111 23 -94
30 -110 47 -109 29 3 188 46 198 55 8 7 2 42 -31 160 l-18 66 -110 -29z"/>
<path d="M3145 3809 c-147 -41 -144 -40 -134 -63 5 -11 18 -59 30 -106 11 -46
22 -87 25 -91 3 -6 211 45 220 53 6 7 -52 222 -61 224 -6 1 -41 -6 -80 -17z"/>
<path d="M4357 3725 c-49 -13 -91 -26 -94 -29 -5 -4 44 -214 52 -224 4 -4 199
48 213 57 8 5 3 38 -16 111 -23 86 -31 105 -47 107 -11 1 -60 -9 -108 -22z"/>
<path d="M2765 3708 c-38 -10 -86 -23 -106 -29 l-37 -9 28 -111 c16 -61 30
-112 32 -115 2 -2 35 5 74 16 38 10 88 24 111 30 l42 10 -14 40 c-8 22 -14 41
-13 43 4 7 -35 147 -41 146 -3 -1 -37 -10 -76 -21z"/>
<path d="M5535 3725 c-5 -2 -149 -40 -320 -85 -360 -94 -605 -159 -621 -165
-8 -2 -9 -17 -3 -52 5 -26 12 -59 14 -73 3 -14 9 -50 15 -80 5 -30 12 -71 16
-90 3 -19 8 -44 9 -55 2 -11 17 -96 34 -188 17 -93 34 -183 37 -200 19 -111
31 -162 40 -161 5 1 204 53 442 115 l433 114 -6 75 c-3 41 -7 104 -10 140 -4
61 -7 89 -20 260 -3 36 -7 97 -10 135 -2 39 -7 104 -11 145 -4 41 -8 91 -9
110 -5 66 -4 64 -30 55z"/>
<path d="M3970 3623 c-52 -15 -96 -27 -97 -28 -1 0 7 -34 18 -75 25 -96 27
-103 28 -115 4 -36 17 -37 124 -8 70 18 107 32 107 41 0 8 -7 42 -16 76 -9 33
-18 69 -20 79 -13 67 -10 66 -144 30z"/>
<path d="M2425 3618 c-16 -5 -37 -10 -45 -12 -57 -14 -133 -35 -136 -39 -4 -4
44 -215 51 -224 2 -4 209 49 217 56 7 6 -40 211 -51 222 -3 4 -19 2 -36 -3z"/>
<path d="M3590 3523 c-52 -14 -97 -27 -99 -29 -5 -5 49 -208 58 -217 5 -5 56
4 115 19 122 32 113 12 73 165 -14 55 -27 84 -37 86 -8 1 -58 -10 -110 -24z"/>
<path d="M1964 3497 l-111 -29 19 -77 c40 -160 37 -152 61 -146 137 30 197 50
197 66 0 15 -50 213 -54 214 0 1 -51 -12 -112 -28z"/>
<path d="M3225 3425 c-44 -13 -81 -24 -82 -24 -2 -1 -10 -1 -18 -1 -8 0 -15
-8 -15 -18 0 -33 48 -206 58 -210 10 -3 195 43 211 52 5 3 0 38 -11 78 -10 40
-23 90 -29 111 -5 20 -15 37 -22 36 -7 0 -48 -11 -92 -24z"/>
<path d="M4459 3436 c-2 -2 -101 -29 -219 -60 -118 -31 -273 -72 -345 -91 -71
-19 -200 -53 -285 -74 -85 -22 -189 -49 -230 -61 -41 -12 -83 -23 -93 -25 -10
-2 -27 -7 -37 -10 -10 -3 -27 -7 -37 -9 -31 -7 -258 -68 -261 -71 -2 -2 12
-50 32 -107 191 -559 248 -724 255 -731 4 -4 244 54 532 128 288 75 596 155
684 178 88 22 162 42 164 44 3 2 -27 202 -43 279 -2 12 -7 37 -10 55 -5 31
-33 194 -56 329 -6 30 -12 66 -15 80 -2 13 -7 40 -10 60 -12 78 -17 95 -26 86z"/>
<path d="M1565 3393 c-49 -14 -91 -26 -93 -28 -3 -2 49 -217 54 -223 4 -5 208
48 217 57 4 4 -5 55 -20 114 -32 124 -21 118 -158 80z"/>
<path d="M2828 3322 c-53 -15 -99 -29 -102 -32 -3 -3 -1 -21 4 -40 5 -19 17
-69 27 -110 10 -41 22 -75 26 -74 50 7 217 59 217 68 -2 30 -56 210 -65 212
-5 1 -54 -10 -107 -24z"/>
<path d="M1185 3293 c-49 -13 -92 -27 -94 -29 -5 -5 40 -200 50 -216 5 -7 42
-1 110 17 57 15 107 29 110 31 4 2 -2 36 -13 76 -10 40 -23 90 -29 111 -12 44
-12 44 -134 10z"/>
<path d="M2480 3230 c-36 -10 -83 -23 -106 -29 l-41 -11 29 -113 c17 -61 31
-113 32 -114 1 -2 195 51 215 59 8 3 0 38 -40 191 -5 20 -13 37 -17 36 -4 0
-36 -9 -72 -19z"/>
<path d="M2062 3120 c-57 -15 -105 -30 -108 -32 -3 -4 37 -173 51 -214 2 -7
38 -2 109 16 58 14 108 29 112 32 6 7 -43 210 -54 219 -4 4 -53 -6 -110 -21z"/>
<path d="M1779 3046 c-2 -3 -16 -7 -29 -10 -48 -9 -171 -44 -177 -50 -10 -10
49 -227 61 -223 6 2 54 14 106 27 52 13 98 26 102 29 6 5 -45 217 -55 227 -2
2 -6 2 -8 0z"/>
<path d="M2780 3000 c-14 -5 -106 -30 -205 -55 -270 -70 -403 -105 -479 -127
-38 -11 -76 -21 -85 -23 -49 -10 -147 -38 -154 -44 -4 -4 1 -25 12 -47 10 -21
73 -158 139 -304 66 -146 136 -299 155 -340 19 -41 42 -92 51 -113 12 -29 20
-37 33 -33 20 6 581 153 746 196 60 16 112 31 115 35 10 10 -280 865 -292 864
-6 0 -22 -4 -36 -9z"/>
<path d="M1295 2917 c-60 -16 -111 -30 -112 -31 -3 -3 53 -215 58 -221 7 -6
200 43 212 55 7 6 -1 48 -41 201 l-7 26 -110 -30z"/>
<path d="M6040 2809 c-19 -5 -44 -11 -55 -13 -11 -3 -56 -15 -100 -26 -44 -12
-97 -26 -117 -31 l-37 -9 -87 -268 c-118 -364 -115 -352 -102 -352 6 0 55 12
107 26 74 20 99 31 107 47 5 12 45 90 88 172 43 83 106 202 139 265 33 63 70
134 84 158 13 23 20 42 16 41 -4 -1 -24 -5 -43 -10z"/>
<path d="M1670 2708 c-14 -4 -101 -28 -194 -53 -93 -25 -171 -46 -173 -48 -2
-2 19 -44 45 -93 27 -49 68 -125 92 -169 23 -44 68 -127 98 -185 30 -58 62
-118 72 -135 10 -16 38 -70 64 -120 73 -140 45 -132 251 -76 99 26 180 52 182
58 2 5 -35 90 -83 189 -47 98 -99 206 -114 239 -15 33 -51 110 -80 170 -29 61
-66 137 -81 169 -30 62 -38 68 -79 54z"/>
<path d="M5405 2650 c-99 -26 -234 -62 -300 -80 -66 -17 -127 -33 -135 -35
-50 -11 -215 -57 -219 -61 -2 -2 -6 -68 -8 -147 -2 -78 -5 -206 -7 -284 -1
-79 0 -143 3 -143 3 0 92 23 196 50 105 28 245 64 312 81 l121 31 52 147 c28
80 56 157 62 171 5 14 18 50 28 80 10 30 33 95 50 143 18 49 30 90 28 91 -1 2
-84 -18 -183 -44z"/>
<path d="M4535 2415 c-73 -21 -680 -182 -715 -190 -8 -2 -121 -31 -250 -65
-129 -35 -245 -65 -257 -67 -13 -3 -23 -10 -23 -15 0 -6 64 -117 142 -247
l143 -238 30 7 c69 16 1000 263 1004 266 3 3 6 82 8 177 2 94 5 218 6 275 2
56 0 106 -3 111 -3 5 -41 -2 -85 -14z"/>
<path d="M5541 1993 c-50 -15 -93 -35 -105 -48 -42 -45 -302 -320 -346 -365
-133 -137 -211 -223 -207 -227 9 -8 138 31 155 48 123 117 608 625 590 618 -2
-1 -41 -13 -87 -26z"/>
<path d="M5210 1916 c-75 -20 -234 -62 -429 -114 -72 -19 -55 9 -141 -237 -23
-66 -56 -157 -72 -203 -17 -45 -28 -85 -26 -88 3 -3 56 8 117 24 119 32 116
30 211 142 25 29 50 58 55 64 6 6 80 92 165 191 85 99 160 185 165 190 17 17
48 55 44 54 -2 0 -42 -11 -89 -23z"/>
<path d="M1992 1746 c-83 -24 -154 -45 -157 -48 -3 -3 39 -34 92 -68 54 -35
188 -123 298 -195 110 -72 205 -134 210 -138 9 -5 143 27 205 49 10 4 -3 22
-46 62 -34 31 -112 104 -174 162 -62 58 -127 119 -144 135 -60 57 -98 85 -114
84 -9 -1 -86 -20 -170 -43z"/>
<path d="M4559 1746 c-3 -3 -272 -75 -339 -91 -18 -4 -232 -61 -415 -110 -71
-19 -136 -35 -142 -35 -22 0 -15 -13 26 -50 21 -19 107 -100 190 -180 84 -80
157 -146 161 -148 5 -2 71 13 147 33 76 21 145 39 153 40 91 21 103 29 117 80
16 55 60 200 104 344 16 52 29 100 29 107 0 13 -21 19 -31 10z"/>
<path d="M3460 1455 c-39 -11 -125 -34 -463 -122 -32 -9 -56 -17 -55 -19 2 -1
86 -32 188 -69 102 -36 208 -75 235 -85 28 -10 112 -41 188 -68 l138 -49 114
31 c64 17 114 33 113 37 -2 4 -32 33 -68 65 -36 31 -99 87 -140 124 -132 119
-193 170 -199 169 -3 0 -26 -7 -51 -14z"/>
<path d="M2735 1253 c-27 -8 -61 -16 -74 -19 -14 -3 -30 -8 -37 -12 -7 -4 175
-62 404 -130 l417 -122 65 16 c36 9 68 20 72 23 4 3 -61 27 -145 53 -84 25
-255 78 -382 117 -126 39 -239 75 -250 79 -12 5 -39 3 -70 -5z"/>
</g>
</svg>
